<svg width="24" height="24" viewBox="0 0 24 24" fill="none" xmlns="http://www.w3.org/2000/svg">
<path d="M12 20.4001L11.616 19.9681C11.376 19.7281 5.76001 13.1041 5.76001 9.12013C5.76001 5.66413 8.54401 2.88013 12 2.88013C15.456 2.88013 18.24 5.66413 18.24 9.12013C18.24 13.1041 12.624 19.7281 12.384 20.0161L12 20.4001ZM12 3.84013C9.07201 3.84013 6.72001 6.19213 6.72001 9.12013C6.72001 12.1921 10.752 17.3761 12 18.9121C13.248 17.3761 17.28 12.1921 17.28 9.12013C17.28 6.19213 14.928 3.84013 12 3.84013Z" fill="#FD5308"/>
<path d="M12.0013 11.52C10.6573 11.52 9.60132 10.464 9.60132 9.11997C9.60132 7.77597 10.6573 6.71997 12.0013 6.71997C13.3453 6.71997 14.4013 7.77597 14.4013 9.11997C14.4013 10.464 13.3453 11.52 12.0013 11.52ZM12.0013 7.67997C11.1853 7.67997 10.5613 8.30397 10.5613 9.11997C10.5613 9.93597 11.1853 10.56 12.0013 10.56C12.8173 10.56 13.4413 9.93597 13.4413 9.11997C13.4413 8.30397 12.8173 7.67997 12.0013 7.67997Z" fill="#FD5308"/>
</svg>
