<svg width="20" height="20" viewBox="0 0 20 20" fill="none" xmlns="http://www.w3.org/2000/svg">
<path d="M17.917 3.3335H16.1115V4.44461H17.7781V16.6668H2.22258V4.44461H3.88925V3.3335H2.08369C1.95382 3.33567 1.82566 3.3634 1.70651 3.41511C1.58736 3.46682 1.47957 3.5415 1.38928 3.63488C1.299 3.72826 1.228 3.83851 1.18033 3.95933C1.13266 4.08015 1.10926 4.20918 1.11147 4.33905V16.7724C1.10926 16.9023 1.13266 17.0313 1.18033 17.1521C1.228 17.2729 1.299 17.3832 1.38928 17.4766C1.47957 17.5699 1.58736 17.6446 1.70651 17.6963C1.82566 17.748 1.95382 17.7758 2.08369 17.7779H17.917C18.0469 17.7758 18.1751 17.748 18.2942 17.6963C18.4134 17.6446 18.5212 17.5699 18.6114 17.4766C18.7017 17.3832 18.7727 17.2729 18.8204 17.1521C18.8681 17.0313 18.8915 16.9023 18.8892 16.7724V4.33905C18.8915 4.20918 18.8681 4.08015 18.8204 3.95933C18.7727 3.83851 18.7017 3.72826 18.6114 3.63488C18.5212 3.5415 18.4134 3.46682 18.2942 3.41511C18.1751 3.3634 18.0469 3.33567 17.917 3.3335Z" fill="#FD5308"/>
<path d="M4.44434 7.77783H5.55545V8.88894H4.44434V7.77783Z" fill="#FD5308"/>
<path d="M7.77734 7.77783H8.88845V8.88894H7.77734V7.77783Z" fill="#FD5308"/>
<path d="M11.1113 7.77783H12.2224V8.88894H11.1113V7.77783Z" fill="#FD5308"/>
<path d="M14.4443 7.77783H15.5555V8.88894H14.4443V7.77783Z" fill="#FD5308"/>
<path d="M4.44434 10.5557H5.55545V11.6668H4.44434V10.5557Z" fill="#FD5308"/>
<path d="M7.77734 10.5557H8.88845V11.6668H7.77734V10.5557Z" fill="#FD5308"/>
<path d="M11.1113 10.5557H12.2224V11.6668H11.1113V10.5557Z" fill="#FD5308"/>
<path d="M14.4443 10.5557H15.5555V11.6668H14.4443V10.5557Z" fill="#FD5308"/>
<path d="M4.44434 13.3335H5.55545V14.4446H4.44434V13.3335Z" fill="#FD5308"/>
<path d="M7.77734 13.3335H8.88845V14.4446H7.77734V13.3335Z" fill="#FD5308"/>
<path d="M11.1113 13.3335H12.2224V14.4446H11.1113V13.3335Z" fill="#FD5308"/>
<path d="M14.4443 13.3335H15.5555V14.4446H14.4443V13.3335Z" fill="#FD5308"/>
<path d="M5.55556 5.55553C5.7029 5.55553 5.84421 5.497 5.94839 5.39281C6.05258 5.28862 6.11111 5.14732 6.11111 4.99997V1.66664C6.11111 1.5193 6.05258 1.37799 5.94839 1.2738C5.84421 1.16962 5.7029 1.11108 5.55556 1.11108C5.40821 1.11108 5.26691 1.16962 5.16272 1.2738C5.05853 1.37799 5 1.5193 5 1.66664V4.99997C5 5.14732 5.05853 5.28862 5.16272 5.39281C5.26691 5.497 5.40821 5.55553 5.55556 5.55553Z" fill="#FD5308"/>
<path d="M14.4442 5.55553C14.5916 5.55553 14.7329 5.497 14.8371 5.39281C14.9413 5.28862 14.9998 5.14732 14.9998 4.99997V1.66664C14.9998 1.5193 14.9413 1.37799 14.8371 1.2738C14.7329 1.16962 14.5916 1.11108 14.4442 1.11108C14.2969 1.11108 14.1556 1.16962 14.0514 1.2738C13.9472 1.37799 13.8887 1.5193 13.8887 1.66664V4.99997C13.8887 5.14732 13.9472 5.28862 14.0514 5.39281C14.1556 5.497 14.2969 5.55553 14.4442 5.55553Z" fill="#FD5308"/>
<path d="M7.22266 3.3335H12.7782V4.44461H7.22266V3.3335Z" fill="#FD5308"/>
</svg>
