<svg width="24" height="24" viewBox="0 0 24 24" fill="none" xmlns="http://www.w3.org/2000/svg">
<path d="M12 5.25001C10.3688 5.25036 8.77438 5.73424 7.41813 6.6405C6.06189 7.54677 5.00473 8.83473 4.38027 10.3416C3.7558 11.8485 3.59206 13.5067 3.90972 15.1067C4.22739 16.7066 5.01221 18.1765 6.165 19.3305C6.37585 19.5418 6.49415 19.8281 6.49387 20.1266C6.49358 20.425 6.37475 20.7112 6.16351 20.922C5.95226 21.1329 5.66591 21.2511 5.36744 21.2509C5.06898 21.2506 4.78285 21.1318 4.572 20.9205C3.10451 19.4517 2.10543 17.5807 1.70106 15.5442C1.29669 13.5077 1.50518 11.3969 2.30018 9.47888C3.09519 7.56082 4.441 5.9215 6.16751 4.76817C7.89402 3.61484 9.92371 2.99927 12 2.99927C14.0763 2.99927 16.106 3.61484 17.8325 4.76817C19.559 5.9215 20.9048 7.56082 21.6998 9.47888C22.4948 11.3969 22.7033 13.5077 22.2989 15.5442C21.8946 17.5807 20.8955 19.4517 19.428 20.9205C19.3243 21.028 19.2002 21.1138 19.063 21.1728C18.9257 21.2318 18.7781 21.2629 18.6287 21.2643C18.4794 21.2657 18.3312 21.2373 18.1929 21.1808C18.0546 21.1243 17.929 21.0408 17.8233 20.9352C17.7176 20.8296 17.6341 20.7041 17.5774 20.5658C17.5208 20.4276 17.4923 20.2795 17.4935 20.1301C17.4947 19.9807 17.5257 19.8331 17.5846 19.6958C17.6435 19.5585 17.7291 19.4343 17.8365 19.3305C18.9894 18.1764 19.7742 16.7064 20.0919 15.1063C20.4095 13.5062 20.2456 11.8479 19.621 10.3409C18.9963 8.83398 17.9389 7.54603 16.5824 6.63988C15.226 5.73373 13.6313 5.25006 12 5.25001ZM12 11.25C11.4033 11.25 10.831 11.4871 10.409 11.909C9.98706 12.331 9.75 12.9033 9.75 13.5C9.75 14.0967 9.98706 14.669 10.409 15.091C10.831 15.513 11.4033 15.75 12 15.75C12.5967 15.75 13.169 15.513 13.591 15.091C14.013 14.669 14.25 14.0967 14.25 13.5C14.25 12.9033 14.013 12.331 13.591 11.909C13.169 11.4871 12.5967 11.25 12 11.25ZM7.875 13.5C7.87498 12.8218 8.0422 12.154 8.36184 11.5558C8.68149 10.9576 9.1437 10.4475 9.70755 10.0705C10.2714 9.69362 10.9195 9.46154 11.5945 9.39486C12.2694 9.32818 12.9504 9.42895 13.5771 9.68826C14.2038 9.94756 14.7569 10.3574 15.1874 10.8815C15.6179 11.4056 15.9126 12.0277 16.0453 12.6928C16.178 13.358 16.1446 14.0455 15.9482 14.6947C15.7517 15.3439 15.3982 15.9346 14.919 16.4145C14.7082 16.6258 14.5899 16.9121 14.5901 17.2106C14.5904 17.509 14.7093 17.7952 14.9205 18.006C15.1317 18.2169 15.4181 18.3351 15.7166 18.3349C16.015 18.3346 16.3012 18.2158 16.512 18.0045C17.4026 17.1126 18.0088 15.9766 18.254 14.7403C18.4992 13.5039 18.3723 12.2226 17.8896 11.0583C17.4068 9.89398 16.5897 8.89892 15.5415 8.19885C14.4933 7.49879 13.2612 7.12515 12.0008 7.12515C10.7403 7.12515 9.50816 7.49879 8.46001 8.19885C7.41186 8.89892 6.59475 9.89398 6.11196 11.0583C5.62916 12.2226 5.50235 13.5039 5.74754 14.7403C5.99273 15.9766 6.59892 17.1126 7.4895 18.0045C7.5925 18.115 7.7167 18.2037 7.8547 18.2652C7.9927 18.3267 8.14167 18.3597 8.29272 18.3624C8.44378 18.3651 8.59382 18.3373 8.7339 18.2807C8.87398 18.2241 9.00123 18.1399 9.10806 18.0331C9.21489 17.9262 9.29911 17.799 9.35569 17.6589C9.41227 17.5188 9.44006 17.3688 9.43739 17.2177C9.43473 17.0667 9.40166 16.9177 9.34018 16.7797C9.27869 16.6417 9.19004 16.5175 9.0795 16.4145C8.69667 16.032 8.39319 15.5776 8.18648 15.0774C7.97978 14.5773 7.87393 14.0412 7.875 13.5Z" fill="#F24E1E"/>
</svg>
