<svg width="24" height="24" viewBox="0 0 24 24" fill="none" xmlns="http://www.w3.org/2000/svg">
<path d="M12 9C12.7956 9 13.5587 8.68393 14.1213 8.12132C14.6839 7.55871 15 6.79565 15 6C15 5.20435 14.6839 4.44129 14.1213 3.87868C13.5587 3.31607 12.7956 3 12 3C11.2044 3 10.4413 3.31607 9.87868 3.87868C9.31607 4.44129 9 5.20435 9 6C9 6.79565 9.31607 7.55871 9.87868 8.12132C10.4413 8.68393 11.2044 9 12 9ZM12 7.5C11.6022 7.5 11.2206 7.34196 10.9393 7.06066C10.658 6.77936 10.5 6.39782 10.5 6C10.5 5.60218 10.658 5.22064 10.9393 4.93934C11.2206 4.65804 11.6022 4.5 12 4.5C12.3978 4.5 12.7794 4.65804 13.0607 4.93934C13.342 5.22064 13.5 5.60218 13.5 6C13.5 6.39782 13.342 6.77936 13.0607 7.06066C12.7794 7.34196 12.3978 7.5 12 7.5ZM5.25 9C5.84674 9 6.41903 8.76295 6.84099 8.34099C7.26295 7.91903 7.5 7.34674 7.5 6.75C7.5 6.15326 7.26295 5.58097 6.84099 5.15901C6.41903 4.73705 5.84674 4.5 5.25 4.5C4.65326 4.5 4.08097 4.73705 3.65901 5.15901C3.23705 5.58097 3 6.15326 3 6.75C3 7.34674 3.23705 7.91903 3.65901 8.34099C4.08097 8.76295 4.65326 9 5.25 9ZM5.25 7.5C5.05109 7.5 4.86032 7.42098 4.71967 7.28033C4.57902 7.13968 4.5 6.94891 4.5 6.75C4.5 6.55109 4.57902 6.36032 4.71967 6.21967C4.86032 6.07902 5.05109 6 5.25 6C5.44891 6 5.63968 6.07902 5.78033 6.21967C5.92098 6.36032 6 6.55109 6 6.75C6 6.94891 5.92098 7.13968 5.78033 7.28033C5.63968 7.42098 5.44891 7.5 5.25 7.5ZM21 6.75C21 7.04547 20.9418 7.33806 20.8287 7.61104C20.7157 7.88402 20.5499 8.13206 20.341 8.34099C20.1321 8.54992 19.884 8.71566 19.611 8.82873C19.3381 8.9418 19.0455 9 18.75 9C18.4545 9 18.1619 8.9418 17.889 8.82873C17.616 8.71566 17.3679 8.54992 17.159 8.34099C16.9501 8.13206 16.7843 7.88402 16.6713 7.61104C16.5582 7.33806 16.5 7.04547 16.5 6.75C16.5 6.15326 16.7371 5.58097 17.159 5.15901C17.581 4.73705 18.1533 4.5 18.75 4.5C19.3467 4.5 19.919 4.73705 20.341 5.15901C20.7629 5.58097 21 6.15326 21 6.75ZM19.5 6.75C19.5 6.55109 19.421 6.36032 19.2803 6.21967C19.1397 6.07902 18.9489 6 18.75 6C18.5511 6 18.3603 6.07902 18.2197 6.21967C18.079 6.36032 18 6.55109 18 6.75C18 6.94891 18.079 7.13968 18.2197 7.28033C18.3603 7.42098 18.5511 7.5 18.75 7.5C18.9489 7.5 19.1397 7.42098 19.2803 7.28033C19.421 7.13968 19.5 6.94891 19.5 6.75ZM8.229 10.689C8.439 10.569 8.68275 10.5 8.94225 10.5H15.0577C15.3451 10.4995 15.6259 10.5852 15.864 10.746C16.248 11.0055 16.5 11.4443 16.5 11.9423V16.5C16.5 17.6935 16.0259 18.8381 15.182 19.682C14.3381 20.5259 13.1935 21 12 21C10.8065 21 9.66193 20.5259 8.81802 19.682C7.97411 18.8381 7.5 17.6935 7.5 16.5V11.9423C7.5 11.4053 7.79325 10.9372 8.229 10.689ZM9 16.5C9 17.2956 9.31607 18.0587 9.87868 18.6213C10.4413 19.1839 11.2044 19.5 12 19.5C12.7956 19.5 13.5587 19.1839 14.1213 18.6213C14.6839 18.0587 15 17.2956 15 16.5V12H9V16.5ZM6.375 11.9423C6.375 11.4075 6.5385 10.911 6.8175 10.5H3C2.60218 10.5 2.22064 10.658 1.93934 10.9393C1.65804 11.2206 1.5 11.6022 1.5 12V15.75C1.49981 16.3958 1.66639 17.0307 1.98363 17.5932C2.30086 18.1557 2.75799 18.6268 3.31073 18.9608C3.86347 19.2947 4.49309 19.4803 5.13861 19.4995C5.78412 19.5187 6.42365 19.3708 6.99525 19.0702C6.761 18.6153 6.5904 18.1302 6.48825 17.6287C6.14905 17.8523 5.75564 17.9799 5.34978 17.9979C4.94392 18.0159 4.54075 17.9237 4.18307 17.7311C3.82539 17.5384 3.52655 17.2525 3.31825 16.9037C3.10995 16.5549 2.99998 16.1563 3 15.75V12H6.375V11.9423ZM18.75 19.5C18.1419 19.5009 17.5428 19.3534 17.0048 19.0702C17.239 18.6152 17.4096 18.1302 17.5118 17.6287C17.851 17.8523 18.2444 17.9799 18.6502 17.9979C19.0561 18.0159 19.4592 17.9237 19.8169 17.7311C20.1746 17.5384 20.4735 17.2525 20.6818 16.9037C20.89 16.5549 21 16.1563 21 15.75V12H17.625V11.9423C17.625 11.4075 17.4615 10.911 17.1825 10.5H21C21.3978 10.5 21.7794 10.658 22.0607 10.9393C22.342 11.2206 22.5 11.6022 22.5 12V15.75C22.5 16.7446 22.1049 17.6984 21.4016 18.4017C20.6984 19.1049 19.7446 19.5 18.75 19.5Z" fill="#FD5308"/>
</svg>
