<svg width="15" height="17" viewBox="0 0 15 17" fill="none" xmlns="http://www.w3.org/2000/svg">
<path d="M4.58333 7.03439C4.58333 6.41251 4.89062 5.8161 5.43761 5.37637C5.98459 4.93663 6.72645 4.68959 7.5 4.68959C8.27355 4.68959 9.01541 4.93663 9.5624 5.37637C10.1094 5.8161 10.4167 6.41251 10.4167 7.03439C10.4167 7.65627 10.1094 8.25267 9.5624 8.69241C9.01541 9.13214 8.27355 9.37918 7.5 9.37918C6.72645 9.37918 5.98459 9.13214 5.43761 8.69241C4.89062 8.25267 4.58333 7.65627 4.58333 7.03439ZM7.5 5.6945C7.05797 5.6945 6.63405 5.83567 6.32149 6.08695C6.00893 6.33822 5.83333 6.67903 5.83333 7.03439C5.83333 7.38975 6.00893 7.73055 6.32149 7.98183C6.63405 8.2331 7.05797 8.37427 7.5 8.37427C7.94203 8.37427 8.36595 8.2331 8.67851 7.98183C8.99107 7.73055 9.16667 7.38975 9.16667 7.03439C9.16667 6.67903 8.99107 6.33822 8.67851 6.08695C8.36595 5.83567 7.94203 5.6945 7.5 5.6945ZM4.75 10.0491C4.03333 10.0491 3.25333 10.4524 3.23333 11.1693C3.21833 11.6711 3.33 12.4107 3.97833 13.029C4.64167 13.6621 5.76167 14.0688 7.5 14.0688C9.23833 14.0688 10.3583 13.6621 11.0217 13.029C11.67 12.4107 11.7817 11.6711 11.7675 11.1693C11.7467 10.4524 10.9667 10.0491 10.25 10.0491H4.75ZM4.4825 11.192C4.48256 11.176 4.48727 11.1602 4.49623 11.1459C4.5052 11.1316 4.51819 11.1192 4.53417 11.1096C4.59628 11.0716 4.6728 11.052 4.75083 11.054H10.25C10.3467 11.054 10.4225 11.0808 10.4658 11.1096C10.4818 11.1192 10.4948 11.1316 10.5038 11.1459C10.5127 11.1602 10.5174 11.176 10.5175 11.192C10.5283 11.5739 10.4367 12.0275 10.0658 12.3812C9.71083 12.7195 8.99667 13.0639 7.5 13.0639C6.00333 13.0639 5.28917 12.7195 4.93333 12.3805C4.56333 12.0275 4.47167 11.5739 4.4825 11.192ZM11.5808 1.33988H12.7083C13.3161 1.33988 13.899 1.53399 14.3288 1.87949C14.7586 2.225 15 2.6936 15 3.18222V14.2363C15 14.7249 14.7586 15.1935 14.3288 15.539C13.899 15.8845 13.3161 16.0786 12.7083 16.0786H2.29167C1.68388 16.0786 1.10098 15.8845 0.671213 15.539C0.241443 15.1935 0 14.7249 0 14.2363V3.18222C0 2.6936 0.241443 2.225 0.671213 1.87949C1.10098 1.53399 1.68388 1.33988 2.29167 1.33988H3.42C3.55617 0.954102 3.84514 0.614552 4.24308 0.372746C4.64101 0.13094 5.12618 7.39342e-05 5.625 7.53822e-09H9.375C9.87385 -3.62591e-05 10.3591 0.130788 10.7571 0.372611C11.155 0.614433 11.4439 0.954045 11.58 1.33988H11.5808ZM3.42 2.3448H2.29167C1.71667 2.3448 1.25 2.71996 1.25 3.18222V14.2363C1.25 14.6985 1.71667 15.0737 2.29167 15.0737H12.7083C13.2833 15.0737 13.75 14.6985 13.75 14.2363V3.18222C13.75 2.71996 13.2833 2.3448 12.7083 2.3448H11.58C11.4438 2.73058 11.1549 3.07013 10.7569 3.31193C10.359 3.55374 9.87382 3.6846 9.375 3.68468H5.625C5.12618 3.6846 4.64101 3.55374 4.24308 3.31193C3.84514 3.07013 3.55617 2.73058 3.42 2.3448ZM4.58333 1.84234C4.58333 2.3046 5.05 2.67977 5.625 2.67977H9.375C9.65127 2.67977 9.91622 2.59154 10.1116 2.43449C10.3069 2.27744 10.4167 2.06444 10.4167 1.84234C10.4167 1.62024 10.3069 1.40724 10.1116 1.25019C9.91622 1.09314 9.65127 1.00491 9.375 1.00491H5.625C5.05 1.00491 4.58333 1.38008 4.58333 1.84234Z" fill="#FD5308"/>
</svg>
