<svg width="50" height="50" viewBox="0 0 50 50" fill="none" xmlns="http://www.w3.org/2000/svg">
<path d="M25 50C38.8071 50 50 38.8071 50 25C50 11.1929 38.8071 0 25 0C11.1929 0 0 11.1929 0 25C0 38.8071 11.1929 50 25 50Z" fill="#FD5308"/>
<path d="M31.3592 49.1588C31.4683 49.1358 31.5772 49.112 31.686 49.0875C32.4899 48.8655 33.2821 48.6035 34.0598 48.3024C34.8363 48.0001 35.5972 47.6591 36.3397 47.2808C37.0824 46.9028 37.8057 46.4878 38.5069 46.0376C39.208 45.5872 39.8862 45.1021 40.5389 44.584C41.192 44.066 41.8188 43.5157 42.4169 42.9351C43.0155 42.3542 43.5846 41.7437 44.1221 41.1059C44.6583 40.4679 45.1623 39.8036 45.6321 39.1152C46.103 38.4276 46.5392 37.7168 46.9392 36.9856C47.3395 36.2543 47.7031 35.5034 48.0284 34.7357C48.3528 33.968 48.6386 33.1845 48.8848 32.3882C49.1304 31.5915 49.336 30.7829 49.5008 29.9656C49.6671 29.1486 49.7924 28.3237 49.8764 27.4941C49.8868 27.3265 49.8956 27.1587 49.9026 26.9908L36.4599 13.5481C35.8949 12.9831 35.1577 12.6992 34.4204 12.6992C33.683 12.6992 32.9459 12.9831 32.3809 13.5481L27.637 18.2882L16.1098 16.2374L13.3905 18.9567L20.1889 25.7551L17.6949 28.2604L15.4225 27.7834L12.7031 30.5027L19.5015 37.3011L31.3592 49.1588Z" fill="#FD5308"/>
<path d="M34.4184 12.7C33.6811 12.7 32.9439 12.9838 32.3789 13.5488L27.6351 18.2889L16.1079 16.2381L13.3885 18.9575L23.541 22.3867L17.6929 28.2611L15.4205 27.7841L12.7012 30.5034L17.4863 32.5167L19.4995 37.3018L22.2227 34.5825L21.7569 32.3289L27.6313 26.4545L31.0831 36.5882L33.8024 33.8688L31.7629 22.3228L36.4579 17.6278C37.585 16.4948 37.5877 14.6784 36.4579 13.5488C35.8929 12.9838 35.1558 12.7 34.4184 12.7V12.7Z" stroke="white" stroke-linecap="round" stroke-linejoin="round"/>
</svg>
