<svg width="20" height="20" viewBox="0 0 20 20" fill="none" xmlns="http://www.w3.org/2000/svg">
<path d="M1.66797 10.0014C1.66844 11.9859 2.37669 13.9051 3.66544 15.4141C4.95418 16.9231 6.7389 17.9229 8.6988 18.2339V12.4098H6.58464V10.0014H8.7013V8.16812C8.65456 7.73902 8.70288 7.3049 8.84282 6.89659C8.98276 6.48827 9.21089 6.11578 9.511 5.80556C9.81112 5.49534 10.1759 5.25501 10.5793 5.10163C10.9828 4.94826 11.4151 4.8856 11.8455 4.91812C12.4705 4.92812 13.0955 4.98395 13.7121 5.08478V7.13395H12.6588C12.4798 7.1105 12.2978 7.12758 12.1262 7.18393C11.9547 7.24028 11.798 7.33446 11.6678 7.4595C11.5375 7.58455 11.4371 7.73726 11.3738 7.90636C11.3105 8.07546 11.286 8.25662 11.3021 8.43645V10.0014H13.6113L13.2421 12.4106H11.3021V18.2339C12.8752 17.9854 14.344 17.2912 15.5348 16.2338C16.7255 15.1763 17.5884 13.7998 18.0211 12.2671C18.4538 10.7345 18.4383 9.10999 17.9765 7.5859C17.5146 6.0618 16.6257 4.70197 15.4149 3.6674C14.2042 2.63283 12.7224 1.96684 11.1449 1.74829C9.56747 1.52973 7.9604 1.76776 6.51401 2.4342C5.06762 3.10064 3.84248 4.16757 2.98364 5.50868C2.1248 6.84979 1.66822 8.40891 1.66797 10.0014V10.0014Z" fill="white"/>
</svg>
