<svg width="20" height="20" viewBox="0 0 20 20" fill="none" xmlns="http://www.w3.org/2000/svg">
<path d="M10.0004 0.399902C4.69839 0.399902 0.400391 4.6979 0.400391 9.9999C0.400391 15.3019 4.69839 19.5999 10.0004 19.5999C15.3024 19.5999 19.6004 15.3019 19.6004 9.9999C19.6004 4.6979 15.3024 0.399902 10.0004 0.399902ZM13.9054 8.2639C13.9094 8.3459 13.9104 8.4279 13.9104 8.5079C13.9104 11.0079 12.0094 13.8889 8.53139 13.8889C7.50368 13.8906 6.49736 13.5954 5.63339 13.0389C5.78039 13.0569 5.93139 13.0639 6.08439 13.0639C6.97039 13.0639 7.78539 12.7629 8.43239 12.2549C8.03811 12.2472 7.65606 12.1166 7.3395 11.8814C7.02294 11.6462 6.78764 11.3182 6.66639 10.9429C6.94955 10.9967 7.24124 10.9855 7.51939 10.9099C7.09144 10.8234 6.70659 10.5915 6.4301 10.2536C6.15361 9.91565 6.0025 9.49252 6.00239 9.0559V9.0329C6.25739 9.1739 6.54939 9.2599 6.85939 9.2699C6.45819 9.00283 6.17418 8.59257 6.06544 8.12303C5.95669 7.6535 6.03144 7.16015 6.27439 6.7439C6.74935 7.3279 7.34165 7.80565 8.01296 8.14621C8.68427 8.48678 9.41961 8.68256 10.1714 8.7209C10.0758 8.31521 10.1169 7.88931 10.2884 7.50941C10.4599 7.12951 10.752 6.81689 11.1195 6.62017C11.4869 6.42344 11.9091 6.35363 12.3203 6.42157C12.7315 6.48952 13.1088 6.69143 13.3934 6.9959C13.8166 6.91218 14.2224 6.75696 14.5934 6.5369C14.4524 6.97504 14.1571 7.34708 13.7624 7.5839C14.1372 7.53875 14.5033 7.43798 14.8484 7.2849C14.5949 7.6648 14.2755 7.99634 13.9054 8.2639V8.2639Z" fill="white"/>
</svg>
