<svg width="30" height="20" viewBox="0 0 30 20" fill="none" xmlns="http://www.w3.org/2000/svg">
<path d="M29.3145 3.1225C30 5.35 30 10 30 10C30 10 30 14.65 29.3145 16.8775C28.9335 18.1088 27.819 19.0775 26.4075 19.405C23.844 20 15 20 15 20C15 20 6.1605 20 3.5925 19.405C2.175 19.0725 1.062 18.105 0.6855 16.8775C5.96046e-08 14.65 0 10 0 10C0 10 5.96046e-08 5.35 0.6855 3.1225C1.0665 1.89125 2.181 0.9225 3.5925 0.595C6.1605 -2.38419e-07 15 0 15 0C15 0 23.844 -2.38419e-07 26.4075 0.595C27.825 0.9275 28.938 1.895 29.3145 3.1225ZM12 14.375L21 10L12 5.625V14.375Z" fill="white"/>
</svg>
