<svg width="18" height="18" viewBox="0 0 18 18" fill="none" xmlns="http://www.w3.org/2000/svg">
<g clip-path="url(#clip0_2_2801)">
<path d="M8.99993 14.0623C6.86665 14.0623 5.13978 11.9983 4.98087 9.3827L2.03056 6.53258C1.64272 7.14079 1.28581 7.78379 0.997813 8.48692C0.933475 8.646 0.899953 8.82176 0.899953 9.00002C0.899953 9.17828 0.933475 9.35404 0.997813 9.51313C2.52303 13.233 5.54252 15.7498 8.99993 15.7498C9.75677 15.7498 10.4869 15.6092 11.1906 15.3821L9.73117 13.9706C9.49015 14.0288 9.2454 14.0595 8.99993 14.0623ZM17.8261 16.1049L14.7169 13.1012C15.6614 12.1062 16.4382 10.8864 17.002 9.51278C17.0664 9.35369 17.0999 9.17793 17.0999 8.99967C17.0999 8.82141 17.0664 8.64565 17.002 8.48657C15.4768 4.76668 12.4573 2.24985 8.99993 2.24985C7.55191 2.25204 6.12742 2.70771 4.85656 3.57524L1.2785 0.118325C1.23184 0.0729406 1.17849 0.039494 1.12148 0.019896C1.06448 0.000298068 1.00494 -0.00506706 0.946281 0.00410723C0.887618 0.0132815 0.830976 0.0368154 0.779592 0.073364C0.728208 0.109913 0.683089 0.15876 0.646813 0.217114L0.0947203 1.10551C0.0214825 1.22328 -0.0113349 1.37259 0.00348584 1.5206C0.0183066 1.66861 0.0795518 1.8032 0.173751 1.89477L16.7214 17.8814C16.768 17.9268 16.8214 17.9602 16.8784 17.9798C16.9354 17.9994 16.9949 18.0048 17.0536 17.9956C17.1122 17.9864 17.1689 17.9629 17.2203 17.9263C17.2716 17.8898 17.3168 17.8409 17.353 17.7826L17.9054 16.8942C17.9786 16.7764 18.0114 16.627 17.9965 16.479C17.9816 16.331 17.9203 16.1964 17.8261 16.1049ZM12.659 11.1127L11.5537 10.0447C11.6468 9.70841 11.6961 9.35566 11.6999 8.99985C11.7054 8.47892 11.6131 7.96365 11.4304 7.49542C11.2476 7.02719 10.9796 6.61905 10.6478 6.30379C10.316 5.98853 9.92968 5.77493 9.51986 5.68016C9.11004 5.58539 8.68815 5.61208 8.28808 5.75809C8.45768 6.04535 8.54942 6.39283 8.54993 6.74985C8.54573 6.86865 8.53121 6.98653 8.50661 7.10141L6.43634 5.10137C7.15549 4.35015 8.06273 3.93821 8.99993 3.93735C9.53186 3.93698 10.0586 4.06767 10.5501 4.32195C11.0416 4.57624 11.4882 4.94912 11.8644 5.41929C12.2405 5.88946 12.5388 6.4477 12.7422 7.06208C12.9457 7.67645 13.0502 8.33493 13.0499 8.99985C13.0499 9.76028 12.9011 10.469 12.659 11.1131V11.1127Z" fill="#2A2A2A" fill-opacity="0.6"/>
</g>
<defs>
<clipPath id="clip0_2_2801">
<rect width="18" height="18" fill="white"/>
</clipPath>
</defs>
</svg>
