<svg width="24" height="24" viewBox="0 0 24 24" fill="none" xmlns="http://www.w3.org/2000/svg">
<g clip-path="url(#clip0_2_5451)">
<path d="M23.9452 1.02895C23.9997 0.892657 24.0131 0.743347 23.9836 0.599532C23.9541 0.455718 23.883 0.323724 23.7792 0.219914C23.6754 0.116105 23.5434 0.0450444 23.3996 0.0155432C23.2558 -0.013958 23.1065 -0.00060275 22.9702 0.0539533L1.14967 8.78245H1.14817L0.470172 9.05245C0.341757 9.10368 0.23 9.1894 0.147245 9.30015C0.0644902 9.4109 0.0139585 9.54237 0.0012317 9.68004C-0.0114951 9.8177 0.0140783 9.95621 0.075127 10.0803C0.136176 10.2043 0.230324 10.3091 0.347172 10.383L0.962172 10.773L0.963672 10.776L8.45617 15.543L13.2232 23.0355L13.2262 23.0385L13.6162 23.6535C13.6903 23.7699 13.7951 23.8635 13.9191 23.9242C14.043 23.9849 14.1813 24.0102 14.3187 23.9973C14.4561 23.9844 14.5873 23.9339 14.6978 23.8512C14.8084 23.7686 14.8939 23.6571 14.9452 23.529L23.9452 1.02895ZM21.1957 3.86395L9.95467 15.105L9.63217 14.598C9.57308 14.5049 9.49421 14.426 9.40117 14.367L8.89417 14.0445L20.1352 2.80345L21.9022 2.09695L21.1972 3.86395H21.1957Z" fill="white"/>
</g>
<defs>
<clipPath id="clip0_2_5451">
<rect width="24" height="24" fill="white"/>
</clipPath>
</defs>
</svg>
